<?xml version="1.0" encoding="utf-8"?>
<!-- Generator: Adobe Illustrator 22.1.0, SVG Export Plug-In . SVG Version: 6.00 Build 0)  -->
<svg version="1.1" id="Layer_1" xmlns="http://www.w3.org/2000/svg" xmlns:xlink="http://www.w3.org/1999/xlink" x="0px" y="0px"
	 viewBox="0 0 169.5 52.5" style="enable-background:new 0 0 169.5 52.5;" xml:space="preserve">
<style type="text/css">
	.st0{fill:#00AFAA;}
	.st1{fill:#002E6D;}
</style>
<g>
	<g>
		<path class="st0" d="M48.8,41.4V42c-0.6,0.4-1,0.7-1.3,0.7c-0.2,0-0.3-0.1-0.3-0.2c-0.1-0.1-0.1-0.3-0.1-0.6
			c-0.7,0.5-1.3,0.8-2,0.8c-0.5,0-0.9-0.2-1.2-0.5c-0.3-0.3-0.5-0.7-0.5-1.1c0-0.7,0.3-1.2,1-1.6c0.6-0.4,1.5-0.6,2.7-0.7V38
			c0-0.9-0.5-1.3-1.4-1.3c-0.6,0-1.2,0.3-1.9,0.8v-0.7c0.7-0.4,1.4-0.7,2-0.7s1,0.1,1.4,0.4s0.6,0.7,0.6,1.2v3.9
			c0,0.2,0.1,0.3,0.2,0.3C48,41.9,48.3,41.8,48.8,41.4 M47.1,41.2v-2c-0.9,0-1.6,0.1-2.1,0.5c-0.6,0.3-0.9,0.8-0.9,1.3
			c0,0.3,0.1,0.5,0.4,0.7c0.2,0.2,0.5,0.3,0.9,0.3C45.9,42,46.5,41.8,47.1,41.2"/>
		<path class="st0" d="M54.3,36.8l-0.4,0.6c-0.5-0.5-0.9-0.7-1.3-0.7c-0.6,0-1.3,0.6-2,1.8v4h-0.7v-6.3h0.7v1.7l0,0
			c0.8-1.2,1.5-1.8,2.2-1.8C53.3,36,53.8,36.3,54.3,36.8"/>
		<path class="st0" d="M59.3,36.4v0.7c-0.6-0.3-1.1-0.4-1.6-0.4c-0.7,0-1.3,0.2-1.7,0.7c-0.4,0.5-0.7,1.1-0.7,1.9s0.2,1.4,0.7,1.9
			c0.4,0.5,1,0.7,1.8,0.7c0.5,0,1.1-0.1,1.7-0.4v0.7c-0.6,0.2-1.2,0.3-1.8,0.3c-0.9,0-1.7-0.3-2.2-0.9c-0.6-0.6-0.9-1.4-0.9-2.3
			c0-1,0.3-1.8,0.9-2.4s1.3-0.9,2.2-0.9C58.1,36,58.7,36.2,59.3,36.4"/>
		<path class="st0" d="M61.6,32.9v4.4l0,0c0.5-0.8,1.2-1.2,2.1-1.2c0.7,0,1.3,0.2,1.7,0.7c0.4,0.5,0.6,1.1,0.6,1.9v3.9h-0.7V39
			c0-1.5-0.6-2.2-1.7-2.2c-0.8,0-1.5,0.4-2.1,1.3v4.4h-0.7v-9.6L61.6,32.9L61.6,32.9z"/>
		<path class="st0" d="M68.8,34.1h-0.7v-1.2h0.7V34.1z M68.8,42.5h-0.7v-6.3h0.7V42.5z"/>
		<path class="st0" d="M72.1,34.1v2.1h1.8v0.5h-1.8v3.7c0,0.6,0,1,0.1,1.2s0.4,0.3,0.8,0.3c0.3,0,0.7-0.1,1.2-0.3v0.6
			c-0.4,0.2-0.9,0.3-1.3,0.3s-0.8-0.1-1-0.4c-0.3-0.2-0.4-0.6-0.4-1v-4.5h-1.7v-0.5h1.7v-1.5L72.1,34.1L72.1,34.1L72.1,34.1z"/>
		<path class="st0" d="M80.7,39.1h-5c0,0.1,0,0.2,0,0.3c0,0.7,0.3,1.3,0.8,1.8s1.1,0.7,1.8,0.7c0.8,0,1.6-0.3,2.3-0.9v0.8
			c-0.7,0.6-1.5,0.8-2.4,0.8s-1.7-0.3-2.3-0.9c-0.6-0.6-0.9-1.4-0.9-2.4c0-0.9,0.3-1.7,0.8-2.3c0.5-0.6,1.2-0.9,2.1-0.9
			c0.8,0,1.4,0.3,2,0.8C80.4,37.4,80.7,38.2,80.7,39.1 M75.8,38.5h4.1c-0.2-1.2-0.9-1.8-2-1.8c-0.5,0-1,0.2-1.3,0.5
			C76.2,37.5,75.9,38,75.8,38.5"/>
		<path class="st0" d="M86.7,36.4v0.7c-0.6-0.3-1.1-0.4-1.6-0.4c-0.7,0-1.3,0.2-1.7,0.7c-0.4,0.5-0.7,1.1-0.7,1.9s0.2,1.4,0.7,1.9
			c0.4,0.5,1,0.7,1.8,0.7c0.5,0,1.1-0.1,1.7-0.4v0.7c-0.6,0.2-1.2,0.3-1.8,0.3c-0.9,0-1.7-0.3-2.2-0.9C82.3,41,82,40.2,82,39.3
			c0-1,0.3-1.8,0.9-2.4s1.3-0.9,2.2-0.9C85.5,36,86,36.2,86.7,36.4"/>
		<path class="st0" d="M89.5,34.1v2.1h1.8v0.5h-1.8v3.7c0,0.6,0,1,0.1,1.2s0.4,0.3,0.8,0.3c0.3,0,0.7-0.1,1.2-0.3v0.6
			c-0.4,0.2-0.9,0.3-1.3,0.3s-0.8-0.1-1-0.4c-0.3-0.2-0.4-0.6-0.4-1v-4.5h-1.7v-0.5h1.7v-1.5L89.5,34.1L89.5,34.1L89.5,34.1z"/>
		<rect x="92.6" y="41.1" class="st0" width="0.9" height="1.4"/>
		<path class="st0" d="M103.4,41.4V42c-0.6,0.4-1,0.7-1.3,0.7c-0.2,0-0.3-0.1-0.3-0.2c-0.1-0.1-0.1-0.3-0.1-0.6
			c-0.7,0.5-1.3,0.8-2,0.8c-0.5,0-0.9-0.2-1.2-0.5c-0.3-0.3-0.5-0.7-0.5-1.1c0-0.7,0.3-1.2,1-1.6c0.6-0.4,1.5-0.6,2.7-0.7V38
			c0-0.9-0.5-1.3-1.4-1.3c-0.6,0-1.2,0.3-1.9,0.8v-0.7c0.7-0.4,1.4-0.7,2-0.7s1,0.1,1.4,0.4s0.6,0.7,0.6,1.2v3.9
			c0,0.2,0.1,0.3,0.2,0.3C102.7,41.9,103,41.8,103.4,41.4 M101.7,41.2v-2c-0.9,0-1.6,0.1-2.1,0.5C99,40,98.7,40.5,98.7,41
			c0,0.3,0.1,0.5,0.4,0.7c0.2,0.2,0.5,0.3,0.9,0.3C100.5,42,101.1,41.8,101.7,41.2"/>
		<path class="st0" d="M108.1,36.6v0.7c-0.6-0.4-1.2-0.6-1.7-0.6c-0.4,0-0.7,0.1-1,0.3c-0.3,0.2-0.4,0.5-0.4,0.8
			c0,0.2,0.1,0.4,0.2,0.6c0.2,0.2,0.6,0.4,1.3,0.7c0.7,0.3,1.2,0.6,1.4,0.9c0.2,0.3,0.3,0.6,0.3,1c0,0.5-0.2,0.9-0.6,1.2
			s-0.9,0.5-1.5,0.5s-1.3-0.2-1.9-0.6v-0.7c0.7,0.4,1.4,0.6,2,0.6c0.4,0,0.7-0.1,1-0.3c0.2-0.2,0.4-0.5,0.4-0.8
			c0-0.2-0.1-0.4-0.2-0.6c-0.2-0.2-0.6-0.4-1.3-0.7c-0.7-0.3-1.2-0.6-1.4-0.8c-0.2-0.3-0.3-0.6-0.3-0.9c0-0.5,0.2-0.9,0.6-1.2
			c0.4-0.3,0.9-0.5,1.4-0.5C106.9,36,107.5,36.2,108.1,36.6"/>
		<path class="st0" d="M113.3,36.6v0.7c-0.6-0.4-1.2-0.6-1.7-0.6c-0.4,0-0.7,0.1-1,0.3c-0.3,0.2-0.4,0.5-0.4,0.8
			c0,0.2,0.1,0.4,0.2,0.6c0.2,0.2,0.6,0.4,1.3,0.7c0.7,0.3,1.2,0.6,1.4,0.9c0.2,0.3,0.3,0.6,0.3,1c0,0.5-0.2,0.9-0.6,1.2
			c-0.4,0.3-0.9,0.5-1.5,0.5s-1.3-0.2-1.9-0.6v-0.7c0.7,0.4,1.4,0.6,2,0.6c0.4,0,0.7-0.1,1-0.3c0.2-0.2,0.4-0.5,0.4-0.8
			c0-0.2-0.1-0.4-0.2-0.6c-0.2-0.2-0.6-0.4-1.3-0.7c-0.7-0.3-1.2-0.6-1.4-0.8c-0.2-0.3-0.3-0.6-0.3-0.9c0-0.5,0.2-0.9,0.6-1.2
			c0.4-0.3,0.9-0.5,1.4-0.5C112.1,36,112.6,36.2,113.3,36.6"/>
		<path class="st0" d="M115.8,34.1h-0.7v-1.2h0.7V34.1z M115.8,42.5h-0.7v-6.3h0.7V42.5z"/>
		<path class="st0" d="M121.3,36.6v0.7c-0.6-0.4-1.2-0.6-1.7-0.6c-0.4,0-0.7,0.1-1,0.3c-0.3,0.2-0.4,0.5-0.4,0.8
			c0,0.2,0.1,0.4,0.2,0.6c0.2,0.2,0.6,0.4,1.3,0.7c0.7,0.3,1.2,0.6,1.4,0.9s0.3,0.6,0.3,1c0,0.5-0.2,0.9-0.6,1.2
			c-0.4,0.3-0.9,0.5-1.5,0.5s-1.3-0.2-1.9-0.6v-0.7c0.7,0.4,1.4,0.6,2,0.6c0.4,0,0.7-0.1,1-0.3c0.2-0.2,0.4-0.5,0.4-0.8
			c0-0.2-0.1-0.4-0.2-0.6c-0.2-0.2-0.6-0.4-1.3-0.7c-0.7-0.3-1.2-0.6-1.4-0.8c-0.2-0.3-0.3-0.6-0.3-0.9c0-0.5,0.2-0.9,0.6-1.2
			c0.4-0.3,0.9-0.5,1.4-0.5C120.1,36,120.7,36.2,121.3,36.6"/>
		<path class="st0" d="M124.2,34.1v2.1h1.8v0.5h-1.8v3.7c0,0.6,0,1,0.1,1.2s0.4,0.3,0.8,0.3c0.3,0,0.7-0.1,1.2-0.3v0.6
			c-0.4,0.2-0.9,0.3-1.3,0.3s-0.8-0.1-1-0.4c-0.3-0.2-0.4-0.6-0.4-1v-4.5h-1.7v-0.5h1.7v-1.5L124.2,34.1L124.2,34.1L124.2,34.1z"/>
		<rect x="127.4" y="41.1" class="st0" width="0.9" height="1.4"/>
		<path class="st0" d="M138.2,41.4V42c-0.6,0.4-1,0.7-1.3,0.7c-0.2,0-0.3-0.1-0.3-0.2c-0.1-0.1-0.1-0.3-0.1-0.6
			c-0.7,0.5-1.3,0.8-2,0.8c-0.5,0-0.9-0.2-1.2-0.5c-0.3-0.3-0.5-0.7-0.5-1.1c0-0.7,0.3-1.2,1-1.6c0.6-0.4,1.5-0.6,2.7-0.7V38
			c0-0.9-0.5-1.3-1.4-1.3c-0.6,0-1.2,0.3-1.9,0.8v-0.7c0.7-0.4,1.4-0.7,2-0.7s1,0.1,1.4,0.4s0.6,0.7,0.6,1.2v3.9
			c0,0.2,0.1,0.3,0.2,0.3C137.4,41.9,137.7,41.8,138.2,41.4 M136.4,41.2v-2c-0.9,0-1.6,0.1-2.1,0.5c-0.6,0.3-0.9,0.8-0.9,1.3
			c0,0.3,0.1,0.5,0.4,0.7c0.2,0.2,0.5,0.3,0.9,0.3C135.3,42,135.8,41.8,136.4,41.2"/>
		<path class="st0" d="M142.8,36.6v0.7c-0.6-0.4-1.2-0.6-1.7-0.6c-0.4,0-0.7,0.1-1,0.3c-0.3,0.2-0.4,0.5-0.4,0.8
			c0,0.2,0.1,0.4,0.2,0.6c0.2,0.2,0.6,0.4,1.3,0.7c0.7,0.3,1.2,0.6,1.4,0.9s0.3,0.6,0.3,1c0,0.5-0.2,0.9-0.6,1.2
			c-0.4,0.3-0.9,0.5-1.5,0.5s-1.3-0.2-1.9-0.6v-0.7c0.7,0.4,1.4,0.6,2,0.6c0.4,0,0.7-0.1,1-0.3c0.2-0.2,0.4-0.5,0.4-0.8
			c0-0.2-0.1-0.4-0.2-0.6c-0.2-0.2-0.6-0.4-1.3-0.7c-0.7-0.3-1.2-0.6-1.4-0.8c-0.2-0.3-0.3-0.6-0.3-0.9c0-0.5,0.2-0.9,0.6-1.2
			c0.4-0.3,0.9-0.5,1.4-0.5C141.6,36,142.2,36.2,142.8,36.6"/>
		<path class="st0" d="M148,36.6v0.7c-0.6-0.4-1.2-0.6-1.7-0.6c-0.4,0-0.7,0.1-1,0.3c-0.3,0.2-0.4,0.5-0.4,0.8
			c0,0.2,0.1,0.4,0.2,0.6c0.2,0.2,0.6,0.4,1.3,0.7c0.7,0.3,1.2,0.6,1.4,0.9c0.2,0.3,0.3,0.6,0.3,1c0,0.5-0.2,0.9-0.6,1.2
			c-0.4,0.3-0.9,0.5-1.5,0.5s-1.3-0.2-1.9-0.6v-0.7c0.7,0.4,1.4,0.6,2,0.6c0.4,0,0.7-0.1,1-0.3c0.2-0.2,0.4-0.5,0.4-0.8
			c0-0.2-0.1-0.4-0.2-0.6c-0.2-0.2-0.6-0.4-1.3-0.7c-0.7-0.3-1.2-0.6-1.4-0.8c-0.2-0.3-0.3-0.6-0.3-0.9c0-0.5,0.2-0.9,0.6-1.2
			c0.4-0.3,0.9-0.5,1.4-0.5C146.8,36,147.4,36.2,148,36.6"/>
		<path class="st0" d="M154.1,42.5v-1l0,0c-0.3,0.4-0.6,0.7-0.9,0.9c-0.3,0.2-0.7,0.3-1.2,0.3c-0.7,0-1.2-0.2-1.7-0.7
			c-0.4-0.4-0.7-1.1-0.7-1.9v-3.9h0.7v3.9c0,0.6,0.2,1,0.5,1.4c0.3,0.3,0.7,0.5,1.2,0.5c0.4,0,0.8-0.1,1.1-0.3
			c0.3-0.2,0.6-0.5,0.9-1v-4.4h0.7v6.3C154.8,42.5,154.1,42.5,154.1,42.5z"/>
		<path class="st0" d="M161.1,36.8l-0.4,0.6c-0.5-0.5-0.9-0.7-1.3-0.7c-0.6,0-1.3,0.6-2,1.8v4h-0.7v-6.3h0.7v1.7l0,0
			c0.8-1.2,1.5-1.8,2.2-1.8C160.1,36,160.6,36.3,161.1,36.8"/>
		<path class="st0" d="M167,39.1h-5c0,0.1,0,0.2,0,0.3c0,0.7,0.3,1.3,0.8,1.8s1.1,0.7,1.8,0.7c0.8,0,1.6-0.3,2.3-0.9v0.8
			c-0.7,0.6-1.5,0.8-2.4,0.8s-1.7-0.3-2.3-0.9c-0.6-0.6-0.9-1.4-0.9-2.4c0-0.9,0.3-1.7,0.8-2.3c0.5-0.6,1.2-0.9,2.1-0.9
			c0.8,0,1.4,0.3,2,0.8C166.8,37.4,167,38.2,167,39.1 M162.1,38.5h4.1c-0.2-1.2-0.9-1.8-2-1.8c-0.5,0-1,0.2-1.3,0.5
			C162.5,37.5,162.3,38,162.1,38.5"/>
		<rect x="168.6" y="41.1" class="st0" width="0.9" height="1.4"/>
	</g>
	<g>
		<path class="st1" d="M66.3,9.8c2.9,0,5.4,0.9,7.3,2.8s2.9,4.2,2.9,7s-1,5.1-3,6.9s-4.5,2.7-7.4,2.7s-5.2-0.9-7.1-2.7
			s-2.9-4.1-2.9-6.9s1-5.2,2.9-7S63.4,9.8,66.3,9.8 M66.4,12.4c-2.2,0-4,0.7-5.4,2c-1.4,1.4-2.1,3.1-2.1,5.2c0,2,0.7,3.7,2.1,5.1
			s3.2,2,5.3,2c2.1,0,3.9-0.7,5.3-2.1s2.1-3.1,2.1-5.2c0-2-0.7-3.7-2.1-5.1C70.2,13.1,68.5,12.4,66.4,12.4"/>
		<path class="st1" d="M99,30.3l-2.7,2.6c-0.9,0-1.7-0.2-2.7-0.5c-0.9-0.3-1.9-0.6-2.8-1.1c-1-0.5-2.2-1.2-3.8-2.3
			c-2.3-0.4-4.2-1.5-5.7-3.3s-2.2-3.8-2.2-6.1c0-2.8,1-5.2,2.9-7c1.9-1.9,4.4-2.8,7.3-2.8s5.4,0.9,7.3,2.8c1.9,1.8,2.9,4.2,2.9,6.9
			c0,2.3-0.7,4.4-2.2,6.2c-1.5,1.8-3.4,2.9-5.7,3.4l0.7,0.3c2.2,0.9,3.8,1.3,4.8,1.3C97.6,30.6,98.3,30.5,99,30.3 M89.2,12.4
			c-2.1,0-3.9,0.7-5.3,2.1s-2.1,3.1-2.1,5.2c0,2,0.7,3.7,2.1,5.1s3.2,2,5.3,2c2.1,0,3.9-0.7,5.3-2.1s2.1-3.1,2.1-5.1
			c0-2.1-0.7-3.8-2.1-5.1C93.1,13.1,91.3,12.4,89.2,12.4"/>
		<path class="st1" d="M115.9,10.1h2.7v10.8c0,1.5-0.1,2.6-0.3,3.3c-0.2,0.7-0.5,1.4-0.8,1.9s-0.7,0.9-1.1,1.3
			c-1.5,1.3-3.5,1.9-5.9,1.9c-2.5,0-4.5-0.6-5.9-1.9c-0.5-0.4-0.8-0.8-1.1-1.3c-0.3-0.5-0.6-1.1-0.8-1.8c-0.2-0.7-0.3-1.8-0.3-3.4
			V10.2h2.7V21c0,1.8,0.2,3,0.6,3.7s1,1.3,1.9,1.7c0.8,0.4,1.8,0.6,2.9,0.6c1.6,0,2.9-0.4,3.9-1.3c0.5-0.5,0.9-1,1.2-1.6
			c0.2-0.6,0.4-1.7,0.4-3.2L115.9,10.1L115.9,10.1z"/>
		<polygon class="st1" points="120.8,10.1 136.7,10.1 136.7,12.5 130,12.5 130,29.1 127.3,29.1 127.3,12.5 120.8,12.5 		"/>
		<path class="st1" d="M152.4,10.1h2.7v10.8c0,1.5-0.1,2.6-0.3,3.3c-0.2,0.7-0.5,1.4-0.8,1.9s-0.7,0.9-1.1,1.3
			c-1.5,1.3-3.5,1.9-5.9,1.9c-2.5,0-4.5-0.6-5.9-1.9c-0.5-0.4-0.8-0.8-1.1-1.3c-0.3-0.5-0.6-1.1-0.8-1.8c-0.2-0.7-0.3-1.8-0.3-3.4
			V10.2h2.7V21c0,1.8,0.2,3,0.6,3.7s1,1.3,1.9,1.7c0.8,0.4,1.8,0.6,2.9,0.6c1.6,0,2.9-0.4,3.9-1.3c0.5-0.5,0.9-1,1.2-1.6
			c0.2-0.6,0.4-1.7,0.4-3.2V10.1H152.4z"/>
		<path class="st1" d="M163.6,21.1l-2.1-1.3c-1.3-0.8-2.2-1.6-2.8-2.3c-0.5-0.8-0.8-1.6-0.8-2.6c0-1.5,0.5-2.7,1.6-3.6
			c1-0.9,2.4-1.4,4-1.4s3,0.4,4.4,1.3v3.1c-1.4-1.3-2.8-2-4.4-2c-0.9,0-1.6,0.2-2.2,0.6s-0.9,0.9-0.9,1.6c0,0.6,0.2,1.1,0.6,1.6
			s1.1,1,2,1.6l2.1,1.2c2.3,1.4,3.5,3.1,3.5,5.3c0,1.5-0.5,2.8-1.5,3.7c-1,0.9-2.3,1.4-4,1.4c-1.9,0-3.6-0.6-5.1-1.7v-3.4
			c1.5,1.9,3.2,2.8,5.1,2.8c0.9,0,1.6-0.2,2.1-0.7c0.6-0.5,0.8-1.1,0.8-1.8C166.1,23.2,165.3,22.2,163.6,21.1"/>
		<polygon class="st1" points="42.9,10.5 45.6,10.5 45.6,27 54.2,27 54.2,29.5 42.9,29.5 		"/>
	</g>
</g>
<g>
	<path class="st0" d="M27.3,12.3c0,1-0.8,1.7-1.7,1.7c-1,0-1.7-0.8-1.7-1.7c0-1,0.8-1.7,1.7-1.7C26.5,10.6,27.3,11.3,27.3,12.3"/>
	<path class="st0" d="M24.2,15.1c0,0.7-0.6,1.2-1.2,1.2c-0.7,0-1.2-0.6-1.2-1.2c0-0.7,0.6-1.2,1.2-1.2C23.7,14,24.2,14.5,24.2,15.1"
		/>
	<path class="st0" d="M30.7,15c0,1-0.8,1.7-1.7,1.7c-1,0-1.7-0.8-1.7-1.7c0-1,0.8-1.7,1.7-1.7C30,13.3,30.7,14.1,30.7,15"/>
	<path class="st0" d="M23.4,19.4c0,1.4-1.1,2.6-2.6,2.6s-2.6-1.1-2.6-2.6s1.1-2.6,2.6-2.6C22.3,16.7,23.4,18,23.4,19.4"/>
	<path class="st0" d="M27.4,17.9c0,1-0.8,1.7-1.7,1.7S24,18.8,24,17.9c0-1,0.8-1.7,1.7-1.7S27.4,16.9,27.4,17.9"/>
	<path class="st0" d="M32.9,20.2c0,1.4-1.1,2.6-2.6,2.6c-1.4,0-2.6-1.1-2.6-2.6s1.1-2.6,2.6-2.6C31.8,17.5,32.9,18.7,32.9,20.2"/>
	<path class="st0" d="M27.2,21.8c0-0.8-0.7-1.4-1.4-1.4s-1.4,0.7-1.4,1.4c0,0.8,0.7,1.4,1.4,1.4S27.2,22.5,27.2,21.8"/>
	<path class="st0" d="M20.3,23.7c0,0.7-0.6,1.2-1.2,1.2c-0.7,0-1.2-0.6-1.2-1.2s0.6-1.2,1.2-1.2C19.7,22.4,20.3,23,20.3,23.7"/>
	<path class="st0" d="M26.6,26.8c0,1.8-1.4,3.2-3.2,3.2s-3.2-1.4-3.2-3.2s1.4-3.2,3.2-3.2C25.2,23.6,26.6,25,26.6,26.8"/>
	<path class="st0" d="M23,11.6c0,1-0.9,1.8-1.8,1.8c-1,0-1.8-0.9-1.8-1.8s0.9-1.8,1.8-1.8C22.2,9.8,23,10.7,23,11.6"/>
	<path class="st0" d="M32.4,26.1c0,1.3-1.1,2.5-2.5,2.5s-2.5-1-2.5-2.5c0-1.3,1.1-2.5,2.5-2.5S32.4,24.7,32.4,26.1"/>
	<path class="st0" d="M20,29.3c0,0.6-0.5,1-1,1c-0.6,0-1-0.5-1-1c0-0.6,0.5-1,1-1S20,28.8,20,29.3"/>
	<path class="st0" d="M30.5,31.3c0,1.2-1,2.2-2.2,2.2s-2.2-1-2.2-2.2s1-2.2,2.2-2.2C29.5,29.1,30.5,30.1,30.5,31.3"/>
	<path class="st0" d="M23.9,33.3c0,1.4-1.1,2.7-2.7,2.7c-1.4,0-2.7-1.1-2.7-2.7c0-1.5,1.2-2.7,2.7-2.7
		C22.7,30.6,23.9,31.8,23.9,33.3"/>
	<path class="st0" d="M27.8,35.5c0,1-0.8,1.7-1.7,1.7c-1,0-1.7-0.8-1.7-1.7c0-1,0.8-1.7,1.7-1.7C27,33.8,27.8,34.5,27.8,35.5"/>
	<path class="st0" d="M20.9,38c0,0.9-0.7,1.5-1.5,1.5c-0.9,0-1.5-0.7-1.5-1.5s0.7-1.5,1.5-1.5C20.3,36.5,20.9,37.2,20.9,38"/>
	<path class="st0" d="M25.2,39.1c0,1-0.8,1.7-1.7,1.7c-1,0-1.7-0.8-1.7-1.7s0.8-1.7,1.7-1.7C24.4,37.3,25.2,38,25.2,39.1"/>
	<path class="st0" d="M21.7,41.5c0,0.7-0.6,1.2-1.2,1.2c-0.7,0-1.2-0.6-1.2-1.2c0-0.7,0.6-1.2,1.2-1.2
		C21.1,40.2,21.7,40.8,21.7,41.5"/>
	<path class="st1" d="M5.6,12.3c0,1,0.8,1.7,1.7,1.7S9,13.2,9,12.3c0-1-0.8-1.7-1.7-1.7C6.4,10.6,5.6,11.3,5.6,12.3"/>
	<path class="st1" d="M8.7,15.1c0,0.7,0.6,1.2,1.2,1.2c0.7,0,1.2-0.6,1.2-1.2c0-0.7-0.6-1.2-1.2-1.2C9.2,14,8.7,14.5,8.7,15.1"/>
	<path class="st1" d="M2.2,15c0,1,0.8,1.7,1.7,1.7S5.6,16,5.6,15c0-1-0.8-1.7-1.7-1.7C2.9,13.3,2.2,14.1,2.2,15"/>
	<path class="st1" d="M9.5,19.4c0,1.4,1.1,2.6,2.6,2.6s2.6-1.1,2.6-2.6s-1.1-2.6-2.6-2.6C10.6,16.7,9.5,18,9.5,19.4"/>
	<path class="st1" d="M5.5,17.9c0,1,0.8,1.7,1.7,1.7s1.7-0.8,1.7-1.7c0-1-0.8-1.7-1.7-1.7C6.3,16.2,5.5,16.9,5.5,17.9"/>
	<path class="st1" d="M0,20.2c0,1.4,1.1,2.6,2.6,2.6s2.6-1.1,2.6-2.6S4,17.6,2.6,17.6C1.1,17.5,0,18.7,0,20.2"/>
	<path class="st1" d="M5.8,21.8c0-0.8,0.7-1.4,1.4-1.4s1.4,0.7,1.4,1.4c0,0.8-0.7,1.4-1.4,1.4C6.4,23.2,5.8,22.5,5.8,21.8"/>
	<path class="st1" d="M12.6,23.7c0,0.7,0.6,1.2,1.2,1.2c0.7,0,1.2-0.6,1.2-1.2s-0.6-1.2-1.2-1.2C13.2,22.4,12.6,23,12.6,23.7"/>
	<path class="st1" d="M6.3,26.8c0,1.8,1.4,3.2,3.2,3.2s3.2-1.4,3.2-3.2s-1.4-3.2-3.2-3.2C7.7,23.6,6.3,25,6.3,26.8"/>
	<path class="st1" d="M10,11.6c0,1,0.9,1.8,1.8,1.8c1,0,1.8-0.9,1.8-1.8s-0.9-1.8-1.8-1.8C10.7,9.8,10,10.7,10,11.6"/>
	<path class="st1" d="M0.5,26.1c0,1.3,1.1,2.5,2.5,2.5s2.5-1,2.5-2.5c0-1.3-1.1-2.5-2.5-2.5S0.5,24.7,0.5,26.1"/>
	<path class="st1" d="M12.9,29.3c0,0.6,0.5,1,1,1c0.5,0,1-0.5,1-1c0-0.6-0.5-1-1-1C13.4,28.3,12.9,28.8,12.9,29.3"/>
	<path class="st1" d="M2.5,31.3c0,1.2,1,2.2,2.2,2.2s2.2-1,2.2-2.2s-1-2.2-2.2-2.2S2.5,30.1,2.5,31.3"/>
	<path class="st1" d="M9,33.3c0,1.4,1.1,2.7,2.7,2.7c1.4,0,2.7-1.1,2.7-2.7c0-1.5-1.2-2.7-2.7-2.7S9,31.8,9,33.3"/>
	<path class="st1" d="M5.1,35.5c0,1,0.8,1.7,1.7,1.7s1.7-0.8,1.7-1.7c0-1-0.8-1.7-1.7-1.7C5.9,33.8,5.1,34.5,5.1,35.5"/>
	<path class="st1" d="M12,38c0,0.9,0.7,1.5,1.5,1.5S15,38.9,15,38s-0.7-1.5-1.5-1.5S12,37.2,12,38"/>
	<path class="st1" d="M7.8,39.1c0,1,0.8,1.7,1.7,1.7s1.7-0.8,1.7-1.7s-0.8-1.7-1.7-1.7C8.6,37.3,7.8,38,7.8,39.1"/>
	<path class="st1" d="M11.2,41.5c0,0.7,0.6,1.2,1.2,1.2c0.7,0,1.2-0.6,1.2-1.2c0-0.7-0.6-1.2-1.2-1.2C11.8,40.2,11.2,40.8,11.2,41.5
		"/>
</g>
</svg>
